<?xml version='1.0' encoding='UTF-8' standalone='no'?>
<svg xmlns:xlink="http://www.w3.org/1999/xlink" xmlns:dc="http://purl.org/dc/elements/1.1/" xmlns:sodipodi="http://sodipodi.sourceforge.net/DTD/sodipodi-0.dtd" width="297mm" baseProfile="tiny" xmlns:svg="http://www.w3.org/2000/svg" xmlns="http://www.w3.org/2000/svg" xmlns:rdf="http://www.w3.org/1999/02/22-rdf-syntax-ns#" xmlns:freecad="http://www.freecad.org/wiki/index.php?title=Svg_Namespace" viewBox="0 0 2970 2100" xmlns:cc="http://creativecommons.org/ns#" xmlns:inkscape="http://www.inkscape.org/namespaces/inkscape" height="210mm" version="1.2">
 <title>FreeCAD SVG Export</title>
 <desc>Drawing page: Page001 exported from FreeCAD document: Sumaya_s_Headboard</desc>
 <defs/>
 <g inkscape:label="TechDraw" inkscape:groupmode="layer" id="Page001">
  <g id="A4_Landscape_blank1.svg" style="stroke: none;" transform="scale(10.000000, 10.000000)">
   <metadata id="metadata8">
    <rdf:RDF>
     <cc:Work rdf:about="">
      <dc:format>image/svg+xml</dc:format>
      <dc:type rdf:resource="http://purl.org/dc/dcmitype/StillImage"/>
     </cc:Work>
    </rdf:RDF>
   </metadata>
  </g>
  <g fill-rule="evenodd" stroke-width="1" stroke-linejoin="bevel" stroke="black" stroke-linecap="square" id="DrawingContent" fill="none">
   <g font-family=".AppleSystemUIFont" font-style="normal" stroke-width="1" stroke-linejoin="bevel" font-size="45.8611" stroke-opacity="1" font-weight="400" stroke="#000000" stroke-linecap="square" fill="none" transform="matrix(1,0,0,1,2201.44,1760.69)">
    <text font-family="osifont" font-style="normal" xml:space="preserve" y="92.2188" font-size="67" x="4" font-weight="400" fill-opacity="1" stroke="none" fill="#000000">Foam</text>
   </g>
   <g font-family=".AppleSystemUIFont" font-style="normal" font-size="45.8611" font-weight="400" fill-opacity="1" stroke="none" fill="#ffffff" transform="matrix(1,0,0,1,2275.98,1129.69)">
    <path fill-rule="evenodd" d="M610,625 L610,-15 L-3.52179e-14,-625 L-610,-15 L-610,625 L610,625" vector-effect="non-scaling-stroke"/>
   </g>
   <g font-family=".AppleSystemUIFont" font-style="normal" stroke-width="7" stroke-linejoin="bevel" font-size="45.8611" stroke-opacity="1" font-weight="400" stroke="#000000" stroke-linecap="round" fill="none" transform="matrix(1,0,0,1,2275.98,1129.69)">
    <path fill-rule="evenodd" d="M-610,625 L610,625" vector-effect="none"/>
   </g>
   <g font-family=".AppleSystemUIFont" font-style="normal" stroke-width="7" stroke-linejoin="bevel" font-size="45.8611" stroke-opacity="1" font-weight="400" stroke="#000000" stroke-linecap="round" fill="none" transform="matrix(1,0,0,1,2275.98,1129.69)">
    <path fill-rule="evenodd" d="M610,625 L610,-15" vector-effect="none"/>
   </g>
   <g font-family=".AppleSystemUIFont" font-style="normal" stroke-width="7" stroke-linejoin="bevel" font-size="45.8611" stroke-opacity="1" font-weight="400" stroke="#000000" stroke-linecap="round" fill="none" transform="matrix(1,0,0,1,2275.98,1129.69)">
    <path fill-rule="evenodd" d="M610,-15 L7.10543e-14,-625" vector-effect="none"/>
   </g>
   <g font-family=".AppleSystemUIFont" font-style="normal" stroke-width="7" stroke-linejoin="bevel" font-size="45.8611" stroke-opacity="1" font-weight="400" stroke="#000000" stroke-linecap="round" fill="none" transform="matrix(1,0,0,1,2275.98,1129.69)">
    <path fill-rule="evenodd" d="M-1.4149e-13,-625 L-610,-15" vector-effect="none"/>
   </g>
   <g font-family=".AppleSystemUIFont" font-style="normal" stroke-width="7" stroke-linejoin="bevel" font-size="45.8611" stroke-opacity="1" font-weight="400" stroke="#000000" stroke-linecap="round" fill="none" transform="matrix(1,0,0,1,2275.98,1129.69)">
    <path fill-rule="evenodd" d="M-610,-15 L-610,625" vector-effect="none"/>
   </g>
   <g font-family=".AppleSystemUIFont" font-style="normal" stroke-width="1" stroke-linejoin="bevel" font-size="45.8611" stroke-opacity="1" font-weight="400" stroke="#000000" stroke-linecap="square" fill="none" transform="matrix(1,0,0,1,2216.8,1561.96)">
    <text font-family="osifont" font-style="normal" xml:space="preserve" y="92.2188" font-size="67" x="4" font-weight="400" fill-opacity="1" stroke="none" fill="#000000">1220</text>
   </g>
   <g font-family=".AppleSystemUIFont" font-style="normal" stroke-width="3.5" stroke-linejoin="bevel" font-size="45.8611" stroke-opacity="1" font-weight="400" stroke="#000000" stroke-linecap="round" fill="none" transform="matrix(1,0,0,1,2275.98,1129.69)">
    <path fill-rule="evenodd" d="M-610,541.52 L610,541.52 M610,625 L610,513.52 M-610,625 L-610,513.52" vector-effect="none"/>
   </g>
   <g font-family=".AppleSystemUIFont" font-style="normal" stroke-width="3.5" stroke-linejoin="bevel" font-size="45.8611" stroke-opacity="1" font-weight="400" fill-opacity="1" stroke="#000000" stroke-linecap="round" fill="#000000" transform="matrix(1,0,0,1,2885.98,1671.21)">
    <path fill-rule="evenodd" d="M0,0 L-35,-5.83333 L-35,5.83333 L0,0" vector-effect="none"/>
   </g>
   <g font-family=".AppleSystemUIFont" font-style="normal" stroke-width="3.5" stroke-linejoin="bevel" font-size="45.8611" stroke-opacity="1" font-weight="400" fill-opacity="1" stroke="#000000" stroke-linecap="round" fill="#000000" transform="matrix(1,0,0,1,1665.98,1671.21)">
    <path fill-rule="evenodd" d="M0,0 L35,5.83333 L35,-5.83333 L0,0" vector-effect="none"/>
   </g>
   <g font-family=".AppleSystemUIFont" font-style="normal" stroke-width="1" stroke-linejoin="bevel" font-size="45.8611" stroke-opacity="1" font-weight="400" stroke="#000000" stroke-linecap="square" fill="none" transform="matrix(0.447132,0.894468,-0.894468,0.447132,2738.29,1127.84)">
    <text font-family="osifont" font-style="normal" xml:space="preserve" y="92.2188" font-size="67" x="4" font-weight="400" fill-opacity="1" stroke="none" fill="#000000">135°</text>
   </g>
   <g font-family=".AppleSystemUIFont" font-style="normal" stroke-width="3.5" stroke-linejoin="bevel" font-size="45.8611" stroke-opacity="1" font-weight="400" stroke="#000000" stroke-linecap="round" fill="none" transform="matrix(1,0,0,1,2275.98,1129.69)">
    <path fill-rule="evenodd" d="M435.003,-189.997 C390.218,-145.211 362.518,-83.3404 362.518,-15 C362.518,121.681 473.319,232.482 610,232.482 M7.10543e-14,-625 L454.802,-170.198 M610,625 L610,204.482" vector-effect="none"/>
   </g>
   <g font-family=".AppleSystemUIFont" font-style="normal" stroke-width="3.5" stroke-linejoin="bevel" font-size="45.8611" stroke-opacity="1" font-weight="400" fill-opacity="1" stroke="#000000" stroke-linecap="round" fill="#000000" transform="matrix(1,0,0,1,2710.98,939.691)">
    <path fill-rule="evenodd" d="M0,0 L-28.8735,20.6239 L-20.6239,28.8735 L0,0" vector-effect="none"/>
   </g>
   <g font-family=".AppleSystemUIFont" font-style="normal" stroke-width="3.5" stroke-linejoin="bevel" font-size="45.8611" stroke-opacity="1" font-weight="400" fill-opacity="1" stroke="#000000" stroke-linecap="round" fill="#000000" transform="matrix(1,0,0,1,2885.98,1362.17)">
    <path fill-rule="evenodd" d="M0,0 L-35,-5.83333 L-35,5.83333 L0,0" vector-effect="none"/>
   </g>
   <g font-family=".AppleSystemUIFont" font-style="normal" stroke-width="1" stroke-linejoin="bevel" font-size="45.8611" stroke-opacity="1" font-weight="400" stroke="#000000" stroke-linecap="square" fill="none" transform="matrix(0,-1,1,0,2698.5,1498.53)">
    <text font-family="osifont" font-style="normal" xml:space="preserve" y="92.2188" font-size="67" x="4" font-weight="400" fill-opacity="1" stroke="none" fill="#000000">640</text>
   </g>
   <g font-family=".AppleSystemUIFont" font-style="normal" stroke-width="3.5" stroke-linejoin="bevel" font-size="45.8611" stroke-opacity="1" font-weight="400" stroke="#000000" stroke-linecap="round" fill="none" transform="matrix(1,0,0,1,2275.98,1129.69)">
    <path fill-rule="evenodd" d="M532.023,625 L532.023,-15 M610,-15 L504.023,-15 M610,625 L504.023,625" vector-effect="none"/>
   </g>
   <g font-family=".AppleSystemUIFont" font-style="normal" stroke-width="3.5" stroke-linejoin="bevel" font-size="45.8611" stroke-opacity="1" font-weight="400" fill-opacity="1" stroke="#000000" stroke-linecap="round" fill="#000000" transform="matrix(1,0,0,1,2808,1114.69)">
    <path fill-rule="evenodd" d="M0,0 L-5.83333,35 L5.83333,35 L0,0" vector-effect="none"/>
   </g>
   <g font-family=".AppleSystemUIFont" font-style="normal" stroke-width="3.5" stroke-linejoin="bevel" font-size="45.8611" stroke-opacity="1" font-weight="400" fill-opacity="1" stroke="#000000" stroke-linecap="round" fill="#000000" transform="matrix(1,0,0,1,2808,1754.69)">
    <path fill-rule="evenodd" d="M0,0 L5.83333,-35 L-5.83333,-35 L0,0" vector-effect="none"/>
   </g>
   <g font-family=".AppleSystemUIFont" font-style="normal" stroke-width="1" stroke-linejoin="bevel" font-size="45.8611" stroke-opacity="1" font-weight="400" stroke="#000000" stroke-linecap="square" fill="none" transform="matrix(0.707107,0.707107,-0.707107,0.707107,2648.53,629.763)">
    <text font-family="osifont" font-style="normal" xml:space="preserve" y="92.2188" font-size="67" x="4" font-weight="400" fill-opacity="1" stroke="none" fill="#000000">862.67</text>
   </g>
   <g font-family=".AppleSystemUIFont" font-style="normal" stroke-width="3.5" stroke-linejoin="bevel" font-size="45.8611" stroke-opacity="1" font-weight="400" stroke="#000000" stroke-linecap="round" fill="none" transform="matrix(1,0,0,1,2275.98,1129.69)">
    <path fill-rule="evenodd" d="M656.31,-61.3101 L46.3101,-671.31 M7.10543e-14,-625 L66.1091,-691.109 M610,-15 L676.109,-81.1091" vector-effect="none"/>
   </g>
   <g font-family=".AppleSystemUIFont" font-style="normal" stroke-width="3.5" stroke-linejoin="bevel" font-size="45.8611" stroke-opacity="1" font-weight="400" fill-opacity="1" stroke="#000000" stroke-linecap="round" fill="#000000" transform="matrix(1,0,0,1,2322.29,458.378)">
    <path fill-rule="evenodd" d="M0,0 L20.6239,28.8735 L28.8735,20.6239 L0,0" vector-effect="none"/>
   </g>
   <g font-family=".AppleSystemUIFont" font-style="normal" stroke-width="3.5" stroke-linejoin="bevel" font-size="45.8611" stroke-opacity="1" font-weight="400" fill-opacity="1" stroke="#000000" stroke-linecap="round" fill="#000000" transform="matrix(1,0,0,1,2932.29,1068.38)">
    <path fill-rule="evenodd" d="M0,0 L-20.6239,-28.8735 L-28.8735,-20.6239 L0,0" vector-effect="none"/>
   </g>
   <g font-family=".AppleSystemUIFont" font-style="normal" stroke-width="1" stroke-linejoin="bevel" font-size="45.8611" stroke-opacity="1" font-weight="400" stroke="#000000" stroke-linecap="square" fill="none" transform="matrix(0.999128,0.0417594,-0.0417594,0.999128,2227.1,654.178)">
    <text font-family="osifont" font-style="normal" xml:space="preserve" y="92.2188" font-size="67" x="4" font-weight="400" fill-opacity="1" stroke="none" fill="#000000">90°</text>
   </g>
   <g font-family=".AppleSystemUIFont" font-style="normal" stroke-width="3.5" stroke-linejoin="bevel" font-size="45.8611" stroke-opacity="1" font-weight="400" stroke="#000000" stroke-linecap="round" fill="none" transform="matrix(1,0,0,1,2275.98,1129.69)">
    <path fill-rule="evenodd" d="M-184.308,-440.692 C-137.139,-393.524 -71.9767,-364.349 -5.11591e-13,-364.349 C71.9767,-364.349 137.139,-393.524 184.308,-440.692 M610,-15 L164.509,-460.491 M-610,-15 L-164.509,-460.491" vector-effect="none"/>
   </g>
   <g font-family=".AppleSystemUIFont" font-style="normal" stroke-width="3.5" stroke-linejoin="bevel" font-size="45.8611" stroke-opacity="1" font-weight="400" fill-opacity="1" stroke="#000000" stroke-linecap="round" fill="#000000" transform="matrix(1,0,0,1,2460.28,688.996)">
    <path fill-rule="evenodd" d="M0,0 L-28.8735,20.6239 L-20.6239,28.8735 L0,0" vector-effect="none"/>
   </g>
   <g font-family=".AppleSystemUIFont" font-style="normal" stroke-width="3.5" stroke-linejoin="bevel" font-size="45.8611" stroke-opacity="1" font-weight="400" fill-opacity="1" stroke="#000000" stroke-linecap="round" fill="#000000" transform="matrix(1,0,0,1,2091.67,688.996)">
    <path fill-rule="evenodd" d="M0,0 L20.6239,28.8735 L28.8735,20.6239 L0,0" vector-effect="none"/>
   </g>
   <g font-family=".AppleSystemUIFont" font-style="normal" stroke-width="1" stroke-linejoin="bevel" font-size="45.8611" stroke-opacity="1" font-weight="400" stroke="#000000" stroke-linecap="square" fill="none" transform="matrix(0.707107,-0.707107,0.707107,0.707107,1799.16,759.712)">
    <text font-family="osifont" font-style="normal" xml:space="preserve" y="92.2188" font-size="67" x="4" font-weight="400" fill-opacity="1" stroke="none" fill="#000000">862.67</text>
   </g>
   <g font-family=".AppleSystemUIFont" font-style="normal" stroke-width="3.5" stroke-linejoin="bevel" font-size="45.8611" stroke-opacity="1" font-weight="400" stroke="#000000" stroke-linecap="round" fill="none" transform="matrix(1,0,0,1,2275.98,1129.69)">
    <path fill-rule="evenodd" d="M-33.4671,-658.467 L-643.467,-48.4671 M-610,-15 L-663.266,-68.2661 M-1.42109e-13,-625 L-53.2661,-678.266" vector-effect="none"/>
   </g>
   <g font-family=".AppleSystemUIFont" font-style="normal" stroke-width="3.5" stroke-linejoin="bevel" font-size="45.8611" stroke-opacity="1" font-weight="400" fill-opacity="1" stroke="#000000" stroke-linecap="round" fill="#000000" transform="matrix(1,0,0,1,1632.51,1081.22)">
    <path fill-rule="evenodd" d="M0,0 L28.8735,-20.6239 L20.6239,-28.8735 L0,0" vector-effect="none"/>
   </g>
   <g font-family=".AppleSystemUIFont" font-style="normal" stroke-width="3.5" stroke-linejoin="bevel" font-size="45.8611" stroke-opacity="1" font-weight="400" fill-opacity="1" stroke="#000000" stroke-linecap="round" fill="#000000" transform="matrix(1,0,0,1,2242.51,471.221)">
    <path fill-rule="evenodd" d="M0,0 L-28.8735,20.6239 L-20.6239,28.8735 L0,0" vector-effect="none"/>
   </g>
   <g font-family=".AppleSystemUIFont" font-style="normal" stroke-width="1" stroke-linejoin="bevel" font-size="45.8611" stroke-opacity="1" font-weight="400" stroke="#000000" stroke-linecap="square" fill="none" transform="matrix(0,-1,1,0,1673.23,1486.73)">
    <text font-family="osifont" font-style="normal" xml:space="preserve" y="92.2188" font-size="67" x="4" font-weight="400" fill-opacity="1" stroke="none" fill="#000000">640</text>
   </g>
   <g font-family=".AppleSystemUIFont" font-style="normal" stroke-width="3.5" stroke-linejoin="bevel" font-size="45.8611" stroke-opacity="1" font-weight="400" stroke="#000000" stroke-linecap="round" fill="none" transform="matrix(1,0,0,1,2275.98,1129.69)">
    <path fill-rule="evenodd" d="M-493.246,-15 L-493.246,625 M-610,625 L-465.246,625 M-610,-15 L-465.246,-15" vector-effect="none"/>
   </g>
   <g font-family=".AppleSystemUIFont" font-style="normal" stroke-width="3.5" stroke-linejoin="bevel" font-size="45.8611" stroke-opacity="1" font-weight="400" fill-opacity="1" stroke="#000000" stroke-linecap="round" fill="#000000" transform="matrix(1,0,0,1,1782.73,1754.69)">
    <path fill-rule="evenodd" d="M0,0 L5.83333,-35 L-5.83333,-35 L0,0" vector-effect="none"/>
   </g>
   <g font-family=".AppleSystemUIFont" font-style="normal" stroke-width="3.5" stroke-linejoin="bevel" font-size="45.8611" stroke-opacity="1" font-weight="400" fill-opacity="1" stroke="#000000" stroke-linecap="round" fill="#000000" transform="matrix(1,0,0,1,1782.73,1114.69)">
    <path fill-rule="evenodd" d="M0,0 L-5.83333,35 L5.83333,35 L0,0" vector-effect="none"/>
   </g>
   <g font-family=".AppleSystemUIFont" font-style="normal" stroke-width="1" stroke-linejoin="bevel" font-size="45.8611" stroke-opacity="1" font-weight="400" stroke="#000000" stroke-linecap="square" fill="none" transform="matrix(1,0,0,1,333.963,1823.62)">
    <text font-family="osifont" font-style="normal" xml:space="preserve" y="92.2188" font-size="67" x="4" font-weight="400" fill-opacity="1" stroke="none" fill="#000000">Backboard Mounted To Support</text>
   </g>
   <g font-family=".AppleSystemUIFont" font-style="normal" font-size="45.8611" font-weight="400" fill-opacity="1" stroke="none" fill="#ffffff" transform="matrix(1,0,0,1,785.58,1065.37)">
    <path fill-rule="evenodd" d="M-568.5,-183.75 L-712.5,-39.75 L-712.5,608.25 L-712.5,752.25 L712.5,752.25 L712.5,608.25 L712.5,-39.75 L568.5,-183.75 L-1.90166e-13,-752.25 L-568.5,-183.75" vector-effect="non-scaling-stroke"/>
   </g>
   <g font-family=".AppleSystemUIFont" font-style="normal" font-size="45.8611" font-weight="400" fill-opacity="1" stroke="none" fill="#ffffff" transform="matrix(1,0,0,1,785.58,1065.37)">
    <path fill-rule="evenodd" d="M-610,327.25 L-610,608.25 L-610,647.25 L610,647.25 L610,608.25 L610,327.25 L-610,327.25" vector-effect="non-scaling-stroke"/>
   </g>
   <g font-family=".AppleSystemUIFont" font-style="normal" font-size="45.8611" font-weight="400" fill-opacity="1" stroke="none" fill="#ffffff" transform="matrix(1,0,0,1,785.58,1065.37)">
    <path fill-rule="evenodd" d="M610,327.25 L610,7.25 L-610,7.25 L-610,327.25 L610,327.25" vector-effect="non-scaling-stroke"/>
   </g>
   <g font-family=".AppleSystemUIFont" font-style="normal" font-size="45.8611" font-weight="400" fill-opacity="1" stroke="none" fill="#ffffff" transform="matrix(1,0,0,1,785.58,1065.37)">
    <path fill-rule="evenodd" d="M610,7.25 L568.5,-34.25 L290,-312.75 L-1.81465e-13,-312.75 L-290,-312.75 L-568.5,-34.25 L-610,7.25 L610,7.25" vector-effect="non-scaling-stroke"/>
   </g>
   <g font-family=".AppleSystemUIFont" font-style="normal" font-size="45.8611" font-weight="400" fill-opacity="1" stroke="none" fill="#ffffff" transform="matrix(1,0,0,1,785.58,1065.37)">
    <path fill-rule="evenodd" d="M-712.5,608.25 L-712.5,752.25 L712.5,752.25 L712.5,608.25 L610,608.25 L712.5,608.25 L712.5,-39.75 L568.5,-183.75 L568.5,-34.25 L610,7.25 L610,327.25 L610,608.25 L712.5,608.25 L610,608.25 L610,647.25 L-610,647.25 L-610,608.25 L-712.5,608.25" vector-effect="non-scaling-stroke"/>
   </g>
   <g font-family=".AppleSystemUIFont" font-style="normal" font-size="45.8611" font-weight="400" fill-opacity="1" stroke="none" fill="#ffffff" transform="matrix(1,0,0,1,785.58,1065.37)">
    <path fill-rule="evenodd" d="M568.5,-183.75 L568.5,-34.25 L290,-312.75 L-9.7674e-14,-602.75 L-1.90063e-13,-752.25 L-9.7674e-14,-602.75 L-290,-312.75 L-568.5,-34.25 L-568.5,-183.75 L-1.90063e-13,-752.25 L-9.7674e-14,-602.75 L-1.90063e-13,-752.25 L568.5,-183.75" vector-effect="non-scaling-stroke"/>
   </g>
   <g font-family=".AppleSystemUIFont" font-style="normal" font-size="45.8611" font-weight="400" fill-opacity="1" stroke="none" fill="#ffffff" transform="matrix(1,0,0,1,785.58,1065.37)">
    <path fill-rule="evenodd" d="M290,-312.75 L-1.10525e-13,-312.75 L-7.307e-14,-602.75 L-1.10525e-13,-312.75 L-290,-312.75 L-7.307e-14,-602.75 L-1.10525e-13,-312.75 L-7.307e-14,-602.75 L290,-312.75" vector-effect="non-scaling-stroke"/>
   </g>
   <g font-family=".AppleSystemUIFont" font-style="normal" font-size="45.8611" font-weight="400" fill-opacity="1" stroke="none" fill="#ffffff" transform="matrix(1,0,0,1,785.58,1065.37)">
    <path fill-rule="evenodd" d="M-568.5,-34.25 L-568.5,-183.75 L-712.5,-39.75 L-712.5,608.25 L-610,608.25 L-610,327.25 L-610,7.25 L-568.5,-34.25" vector-effect="non-scaling-stroke"/>
   </g>
   <g font-family=".AppleSystemUIFont" font-style="normal" font-size="45.8611" font-weight="400" fill-opacity="1" stroke="none" fill="#ffffff" transform="matrix(1,0,0,1,785.58,1065.37)">
    <path fill-rule="evenodd" d="M610,327.25 L-610,327.25 L610,327.25" vector-effect="non-scaling-stroke"/>
   </g>
   <g font-family=".AppleSystemUIFont" font-style="normal" font-size="45.8611" font-weight="400" fill-opacity="1" stroke="none" fill="#ffffff" transform="matrix(1,0,0,1,785.58,1065.37)">
    <path fill-rule="evenodd" d="M610,7.25 L-610,7.25 L610,7.25" vector-effect="non-scaling-stroke"/>
   </g>
   <g font-family=".AppleSystemUIFont" font-style="normal" font-size="45.8611" font-weight="400" fill-opacity="1" stroke="none" fill="#ffffff" transform="matrix(1,0,0,1,785.58,1065.37)">
    <path fill-rule="evenodd" d="M-610,608.25 L-712.5,608.25 L-610,608.25" vector-effect="non-scaling-stroke"/>
   </g>
   <g font-family=".AppleSystemUIFont" font-style="normal" font-size="45.8611" font-weight="400" fill-opacity="1" stroke="none" fill="#ffffff" transform="matrix(1,0,0,1,785.58,1065.37)">
    <path fill-rule="evenodd" d="M-1.77636e-13,-312.75 L-290,-312.75 L-1.77636e-13,-312.75" vector-effect="non-scaling-stroke"/>
   </g>
   <g font-family=".AppleSystemUIFont" font-style="normal" font-size="45.8611" font-weight="400" fill-opacity="1" stroke="none" fill="#ffffff" transform="matrix(1,0,0,1,785.58,1065.37)">
    <path fill-rule="evenodd" d="M290,-312.75 L-1.10411e-13,-312.75 L290,-312.75" vector-effect="non-scaling-stroke"/>
   </g>
   <g font-family=".AppleSystemUIFont" font-style="normal" stroke-width="7" stroke-linejoin="bevel" font-size="45.8611" stroke-opacity="1" font-weight="400" stroke="#000000" stroke-linecap="round" fill="none" transform="matrix(1,0,0,1,785.58,1065.37)">
    <path fill-rule="evenodd" d="M-712.5,752.25 L712.5,752.25" vector-effect="none"/>
   </g>
   <g font-family=".AppleSystemUIFont" font-style="normal" stroke-width="7" stroke-linejoin="bevel" font-size="45.8611" stroke-opacity="1" font-weight="400" stroke="#000000" stroke-linecap="round" fill="none" transform="matrix(1,0,0,1,785.58,1065.37)">
    <path fill-rule="evenodd" d="M712.5,752.25 L712.5,608.25" vector-effect="none"/>
   </g>
   <g font-family=".AppleSystemUIFont" font-style="normal" stroke-width="7" stroke-linejoin="bevel" font-size="45.8611" stroke-opacity="1" font-weight="400" stroke="#000000" stroke-linecap="round" fill="none" transform="matrix(1,0,0,1,785.58,1065.37)">
    <path fill-rule="evenodd" d="M712.5,608.25 L610,608.25" vector-effect="none"/>
   </g>
   <g font-family=".AppleSystemUIFont" font-style="normal" stroke-width="7" stroke-linejoin="bevel" font-size="45.8611" stroke-opacity="1" font-weight="400" stroke="#000000" stroke-linecap="round" fill="none" transform="matrix(1,0,0,1,785.58,1065.37)">
    <path fill-rule="evenodd" d="M-610,608.25 L-712.5,608.25" vector-effect="none"/>
   </g>
   <g font-family=".AppleSystemUIFont" font-style="normal" stroke-width="7" stroke-linejoin="bevel" font-size="45.8611" stroke-opacity="1" font-weight="400" stroke="#000000" stroke-linecap="round" fill="none" transform="matrix(1,0,0,1,785.58,1065.37)">
    <path fill-rule="evenodd" d="M-712.5,608.25 L-712.5,752.25" vector-effect="none"/>
   </g>
   <g font-family=".AppleSystemUIFont" font-style="normal" stroke-width="7" stroke-linejoin="bevel" font-size="45.8611" stroke-opacity="1" font-weight="400" stroke="#000000" stroke-linecap="round" fill="none" transform="matrix(1,0,0,1,785.58,1065.37)">
    <path fill-rule="evenodd" d="M-610,327.25 L610,327.25" vector-effect="none"/>
   </g>
   <g font-family=".AppleSystemUIFont" font-style="normal" stroke-width="7" stroke-linejoin="bevel" font-size="45.8611" stroke-opacity="1" font-weight="400" stroke="#000000" stroke-linecap="round" fill="none" transform="matrix(1,0,0,1,785.58,1065.37)">
    <path fill-rule="evenodd" d="M610,327.25 L610,7.25" vector-effect="none"/>
   </g>
   <g font-family=".AppleSystemUIFont" font-style="normal" stroke-width="7" stroke-linejoin="bevel" font-size="45.8611" stroke-opacity="1" font-weight="400" stroke="#000000" stroke-linecap="round" fill="none" transform="matrix(1,0,0,1,785.58,1065.37)">
    <path fill-rule="evenodd" d="M610,7.25 L-610,7.25" vector-effect="none"/>
   </g>
   <g font-family=".AppleSystemUIFont" font-style="normal" stroke-width="7" stroke-linejoin="bevel" font-size="45.8611" stroke-opacity="1" font-weight="400" stroke="#000000" stroke-linecap="round" fill="none" transform="matrix(1,0,0,1,785.58,1065.37)">
    <path fill-rule="evenodd" d="M-610,7.25 L-610,327.25" vector-effect="none"/>
   </g>
   <g font-family=".AppleSystemUIFont" font-style="normal" stroke-width="7" stroke-linejoin="bevel" font-size="45.8611" stroke-opacity="1" font-weight="400" stroke="#000000" stroke-linecap="round" fill="none" transform="matrix(1,0,0,1,785.58,1065.37)">
    <path fill-rule="evenodd" d="M-712.5,608.25 L-610,608.25" vector-effect="none"/>
   </g>
   <g font-family=".AppleSystemUIFont" font-style="normal" stroke-width="7" stroke-linejoin="bevel" font-size="45.8611" stroke-opacity="1" font-weight="400" stroke="#000000" stroke-linecap="round" fill="none" transform="matrix(1,0,0,1,785.58,1065.37)">
    <path fill-rule="evenodd" d="M-568.5,-34.25 L-568.5,-183.75" vector-effect="none"/>
   </g>
   <g font-family=".AppleSystemUIFont" font-style="normal" stroke-width="7" stroke-linejoin="bevel" font-size="45.8611" stroke-opacity="1" font-weight="400" stroke="#000000" stroke-linecap="round" fill="none" transform="matrix(1,0,0,1,785.58,1065.37)">
    <path fill-rule="evenodd" d="M-568.5,-183.75 L-712.5,-39.75" vector-effect="none"/>
   </g>
   <g font-family=".AppleSystemUIFont" font-style="normal" stroke-width="7" stroke-linejoin="bevel" font-size="45.8611" stroke-opacity="1" font-weight="400" stroke="#000000" stroke-linecap="round" fill="none" transform="matrix(1,0,0,1,785.58,1065.37)">
    <path fill-rule="evenodd" d="M-712.5,-39.75 L-712.5,608.25" vector-effect="none"/>
   </g>
   <g font-family=".AppleSystemUIFont" font-style="normal" stroke-width="7" stroke-linejoin="bevel" font-size="45.8611" stroke-opacity="1" font-weight="400" stroke="#000000" stroke-linecap="round" fill="none" transform="matrix(1,0,0,1,785.58,1065.37)">
    <path fill-rule="evenodd" d="M610,608.25 L712.5,608.25" vector-effect="none"/>
   </g>
   <g font-family=".AppleSystemUIFont" font-style="normal" stroke-width="7" stroke-linejoin="bevel" font-size="45.8611" stroke-opacity="1" font-weight="400" stroke="#000000" stroke-linecap="round" fill="none" transform="matrix(1,0,0,1,785.58,1065.37)">
    <path fill-rule="evenodd" d="M712.5,608.25 L712.5,-39.75" vector-effect="none"/>
   </g>
   <g font-family=".AppleSystemUIFont" font-style="normal" stroke-width="7" stroke-linejoin="bevel" font-size="45.8611" stroke-opacity="1" font-weight="400" stroke="#000000" stroke-linecap="round" fill="none" transform="matrix(1,0,0,1,785.58,1065.37)">
    <path fill-rule="evenodd" d="M712.5,-39.75 L568.5,-183.75" vector-effect="none"/>
   </g>
   <g font-family=".AppleSystemUIFont" font-style="normal" stroke-width="7" stroke-linejoin="bevel" font-size="45.8611" stroke-opacity="1" font-weight="400" stroke="#000000" stroke-linecap="round" fill="none" transform="matrix(1,0,0,1,785.58,1065.37)">
    <path fill-rule="evenodd" d="M568.5,-183.75 L568.5,-34.25" vector-effect="none"/>
   </g>
   <g font-family=".AppleSystemUIFont" font-style="normal" stroke-width="7" stroke-linejoin="bevel" font-size="45.8611" stroke-opacity="1" font-weight="400" stroke="#000000" stroke-linecap="round" fill="none" transform="matrix(1,0,0,1,785.58,1065.37)">
    <path fill-rule="evenodd" d="M-568.5,-183.75 L-2.13163e-13,-752.25" vector-effect="none"/>
   </g>
   <g font-family=".AppleSystemUIFont" font-style="normal" stroke-width="7" stroke-linejoin="bevel" font-size="45.8611" stroke-opacity="1" font-weight="400" stroke="#000000" stroke-linecap="round" fill="none" transform="matrix(1,0,0,1,785.58,1065.37)">
    <path fill-rule="evenodd" d="M-1.6717e-13,-752.25 L-1.50725e-13,-602.75" vector-effect="none"/>
   </g>
   <g font-family=".AppleSystemUIFont" font-style="normal" stroke-width="7" stroke-linejoin="bevel" font-size="45.8611" stroke-opacity="1" font-weight="400" stroke="#000000" stroke-linecap="round" fill="none" transform="matrix(1,0,0,1,785.58,1065.37)">
    <path fill-rule="evenodd" d="M-568.5,-34.25 L-568.5,-183.75" vector-effect="none"/>
   </g>
   <g font-family=".AppleSystemUIFont" font-style="normal" stroke-width="7" stroke-linejoin="bevel" font-size="45.8611" stroke-opacity="1" font-weight="400" stroke="#000000" stroke-linecap="round" fill="none" transform="matrix(1,0,0,1,785.58,1065.37)">
    <path fill-rule="evenodd" d="M-1.6717e-13,-752.25 L568.5,-183.75" vector-effect="none"/>
   </g>
   <g font-family=".AppleSystemUIFont" font-style="normal" stroke-width="7" stroke-linejoin="bevel" font-size="45.8611" stroke-opacity="1" font-weight="400" stroke="#000000" stroke-linecap="round" fill="none" transform="matrix(1,0,0,1,785.58,1065.37)">
    <path fill-rule="evenodd" d="M568.5,-183.75 L568.5,-34.25" vector-effect="none"/>
   </g>
   <g font-family=".AppleSystemUIFont" font-style="normal" stroke-width="7" stroke-linejoin="bevel" font-size="45.8611" stroke-opacity="1" font-weight="400" stroke="#000000" stroke-linecap="round" fill="none" transform="matrix(1,0,0,1,785.58,1065.37)">
    <path fill-rule="evenodd" d="M-1.50516e-13,-602.75 L-1.66961e-13,-752.25" vector-effect="none"/>
   </g>
   <g font-family=".AppleSystemUIFont" font-style="normal" stroke-width="7" stroke-linejoin="bevel" font-size="45.8611" stroke-opacity="1" font-weight="400" stroke="#000000" stroke-linecap="round" fill="none" transform="matrix(1,0,0,1,785.58,1065.37)">
    <path fill-rule="evenodd" d="M-610,647.25 L610,647.25" vector-effect="none"/>
   </g>
   <g font-family=".AppleSystemUIFont" font-style="normal" stroke-width="7" stroke-linejoin="bevel" font-size="45.8611" stroke-opacity="1" font-weight="400" stroke="#000000" stroke-linecap="round" fill="none" transform="matrix(1,0,0,1,785.58,1065.37)">
    <path fill-rule="evenodd" d="M610,647.25 L610,327.25" vector-effect="none"/>
   </g>
   <g font-family=".AppleSystemUIFont" font-style="normal" stroke-width="7" stroke-linejoin="bevel" font-size="45.8611" stroke-opacity="1" font-weight="400" stroke="#000000" stroke-linecap="round" fill="none" transform="matrix(1,0,0,1,785.58,1065.37)">
    <path fill-rule="evenodd" d="M610,327.25 L-610,327.25" vector-effect="none"/>
   </g>
   <g font-family=".AppleSystemUIFont" font-style="normal" stroke-width="7" stroke-linejoin="bevel" font-size="45.8611" stroke-opacity="1" font-weight="400" stroke="#000000" stroke-linecap="round" fill="none" transform="matrix(1,0,0,1,785.58,1065.37)">
    <path fill-rule="evenodd" d="M-610,327.25 L-610,647.25" vector-effect="none"/>
   </g>
   <g font-family=".AppleSystemUIFont" font-style="normal" stroke-width="7" stroke-linejoin="bevel" font-size="45.8611" stroke-opacity="1" font-weight="400" stroke="#000000" stroke-linecap="round" fill="none" transform="matrix(1,0,0,1,785.58,1065.37)">
    <path fill-rule="evenodd" d="M-610,7.25 L610,7.25" vector-effect="none"/>
   </g>
   <g font-family=".AppleSystemUIFont" font-style="normal" stroke-width="7" stroke-linejoin="bevel" font-size="45.8611" stroke-opacity="1" font-weight="400" stroke="#000000" stroke-linecap="round" fill="none" transform="matrix(1,0,0,1,785.58,1065.37)">
    <path fill-rule="evenodd" d="M610,7.25 L290,-312.75" vector-effect="none"/>
   </g>
   <g font-family=".AppleSystemUIFont" font-style="normal" stroke-width="7" stroke-linejoin="bevel" font-size="45.8611" stroke-opacity="1" font-weight="400" stroke="#000000" stroke-linecap="round" fill="none" transform="matrix(1,0,0,1,785.58,1065.37)">
    <path fill-rule="evenodd" d="M290,-312.75 L-290,-312.75" vector-effect="none"/>
   </g>
   <g font-family=".AppleSystemUIFont" font-style="normal" stroke-width="7" stroke-linejoin="bevel" font-size="45.8611" stroke-opacity="1" font-weight="400" stroke="#000000" stroke-linecap="round" fill="none" transform="matrix(1,0,0,1,785.58,1065.37)">
    <path fill-rule="evenodd" d="M-290,-312.75 L-610,7.25" vector-effect="none"/>
   </g>
   <g font-family=".AppleSystemUIFont" font-style="normal" stroke-width="7" stroke-linejoin="bevel" font-size="45.8611" stroke-opacity="1" font-weight="400" stroke="#000000" stroke-linecap="round" fill="none" transform="matrix(1,0,0,1,785.58,1065.37)">
    <path fill-rule="evenodd" d="M290,-312.75 L0,-602.75" vector-effect="none"/>
   </g>
   <g font-family=".AppleSystemUIFont" font-style="normal" stroke-width="7" stroke-linejoin="bevel" font-size="45.8611" stroke-opacity="1" font-weight="400" stroke="#000000" stroke-linecap="round" fill="none" transform="matrix(1,0,0,1,785.58,1065.37)">
    <path fill-rule="evenodd" d="M-1.4643e-13,-602.75 L-1.1453e-13,-312.75" vector-effect="none"/>
   </g>
   <g font-family=".AppleSystemUIFont" font-style="normal" stroke-width="7" stroke-linejoin="bevel" font-size="45.8611" stroke-opacity="1" font-weight="400" stroke="#000000" stroke-linecap="round" fill="none" transform="matrix(1,0,0,1,785.58,1065.37)">
    <path fill-rule="evenodd" d="M-1.1424e-13,-312.75 L290,-312.75" vector-effect="none"/>
   </g>
   <g font-family=".AppleSystemUIFont" font-style="normal" stroke-width="7" stroke-linejoin="bevel" font-size="45.8611" stroke-opacity="1" font-weight="400" stroke="#000000" stroke-linecap="round" fill="none" transform="matrix(1,0,0,1,785.58,1065.37)">
    <path fill-rule="evenodd" d="M-1.1424e-13,-312.75 L-1.4614e-13,-602.75" vector-effect="none"/>
   </g>
   <g font-family=".AppleSystemUIFont" font-style="normal" stroke-width="7" stroke-linejoin="bevel" font-size="45.8611" stroke-opacity="1" font-weight="400" stroke="#000000" stroke-linecap="round" fill="none" transform="matrix(1,0,0,1,785.58,1065.37)">
    <path fill-rule="evenodd" d="M-1.4643e-13,-602.75 L-290,-312.75" vector-effect="none"/>
   </g>
   <g font-family=".AppleSystemUIFont" font-style="normal" stroke-width="7" stroke-linejoin="bevel" font-size="45.8611" stroke-opacity="1" font-weight="400" stroke="#000000" stroke-linecap="round" fill="none" transform="matrix(1,0,0,1,785.58,1065.37)">
    <path fill-rule="evenodd" d="M-290,-312.75 L-2.4869e-13,-312.75" vector-effect="none"/>
   </g>
   <g font-family=".AppleSystemUIFont" font-style="normal" stroke-width="1" stroke-linejoin="bevel" font-size="45.8611" stroke-opacity="1" font-weight="400" stroke="#000000" stroke-linecap="square" fill="none" transform="matrix(0.707107,-0.707107,0.707107,0.707107,1071.29,450.477)">
    <text font-family="osifont" font-style="normal" xml:space="preserve" y="92.2188" font-size="67" x="4" font-weight="400" fill-opacity="1" stroke="none" fill="#000000">105.71</text>
   </g>
   <g font-family=".AppleSystemUIFont" font-style="normal" stroke-width="3.5" stroke-linejoin="bevel" font-size="45.8611" stroke-opacity="1" font-weight="400" stroke="#000000" stroke-linecap="round" fill="none" transform="matrix(1,0,0,1,785.58,1065.37)">
    <path fill-rule="evenodd" d="M478.513,-653.198 L164.535,-339.22 M290,-312.75 L194.234,-408.516 M364.75,-387.5 L268.984,-483.266" vector-effect="none"/>
   </g>
   <g font-family=".AppleSystemUIFont" font-style="normal" stroke-width="3.5" stroke-linejoin="bevel" font-size="45.8611" stroke-opacity="1" font-weight="400" fill-opacity="1" stroke="#000000" stroke-linecap="round" fill="#000000" transform="matrix(1,0,0,1,999.613,676.655)">
    <path fill-rule="evenodd" d="M0,0 L-28.8735,20.6239 L-20.6239,28.8735 L0,0" vector-effect="none"/>
   </g>
   <g font-family=".AppleSystemUIFont" font-style="normal" stroke-width="3.5" stroke-linejoin="bevel" font-size="45.8611" stroke-opacity="1" font-weight="400" fill-opacity="1" stroke="#000000" stroke-linecap="round" fill="#000000" transform="matrix(1,0,0,1,1074.36,601.905)">
    <path fill-rule="evenodd" d="M0,0 L28.8735,-20.6239 L20.6239,-28.8735 L0,0" vector-effect="none"/>
   </g>
   <g font-family=".AppleSystemUIFont" font-style="normal" stroke-width="1" stroke-linejoin="bevel" font-size="45.8611" stroke-opacity="1" font-weight="400" stroke="#000000" stroke-linecap="square" fill="none" transform="matrix(1,0,0,1,1080.52,1247.48)">
    <text font-family="osifont" font-style="normal" xml:space="preserve" y="92.2188" font-size="67" x="4" font-weight="400" fill-opacity="1" stroke="none" fill="#000000">102.5</text>
   </g>
   <g font-family=".AppleSystemUIFont" font-style="normal" stroke-width="3.5" stroke-linejoin="bevel" font-size="45.8611" stroke-opacity="1" font-weight="400" stroke="#000000" stroke-linecap="round" fill="none" transform="matrix(1,0,0,1,785.58,1065.37)">
    <path fill-rule="evenodd" d="M280.998,291.361 L782.5,291.361 M712.5,327.25 L712.5,263.361 M610,327.25 L610,263.361" vector-effect="none"/>
   </g>
   <g font-family=".AppleSystemUIFont" font-style="normal" stroke-width="3.5" stroke-linejoin="bevel" font-size="45.8611" stroke-opacity="1" font-weight="400" fill-opacity="1" stroke="#000000" stroke-linecap="round" fill="#000000" transform="matrix(1,0,0,1,1498.08,1356.73)">
    <path fill-rule="evenodd" d="M0,0 L35,5.83333 L35,-5.83333 L0,0" vector-effect="none"/>
   </g>
   <g font-family=".AppleSystemUIFont" font-style="normal" stroke-width="3.5" stroke-linejoin="bevel" font-size="45.8611" stroke-opacity="1" font-weight="400" fill-opacity="1" stroke="#000000" stroke-linecap="round" fill="#000000" transform="matrix(1,0,0,1,1395.58,1356.73)">
    <path fill-rule="evenodd" d="M0,0 L-35,-5.83333 L-35,5.83333 L0,0" vector-effect="none"/>
   </g>
   <g font-family=".AppleSystemUIFont" font-style="normal" stroke-width="1" stroke-linejoin="bevel" font-size="45.8611" stroke-opacity="1" font-weight="400" stroke="#000000" stroke-linecap="square" fill="none" transform="matrix(1,0,0,1,319.097,1188.8)">
    <text font-family="osifont" font-style="normal" xml:space="preserve" y="92.2188" font-size="67" x="4" font-weight="400" fill-opacity="1" stroke="none" fill="#000000">102.5</text>
   </g>
   <g font-family=".AppleSystemUIFont" font-style="normal" stroke-width="3.5" stroke-linejoin="bevel" font-size="45.8611" stroke-opacity="1" font-weight="400" stroke="#000000" stroke-linecap="round" fill="none" transform="matrix(1,0,0,1,785.58,1065.37)">
    <path fill-rule="evenodd" d="M-326.319,232.683 L-782.5,232.683 M-712.5,7.25 L-712.5,260.683 M-610,7.25 L-610,260.683" vector-effect="none"/>
   </g>
   <g font-family=".AppleSystemUIFont" font-style="normal" stroke-width="3.5" stroke-linejoin="bevel" font-size="45.8611" stroke-opacity="1" font-weight="400" fill-opacity="1" stroke="#000000" stroke-linecap="round" fill="#000000" transform="matrix(1,0,0,1,73.0798,1298.05)">
    <path fill-rule="evenodd" d="M0,0 L-35,-5.83333 L-35,5.83333 L0,0" vector-effect="none"/>
   </g>
   <g font-family=".AppleSystemUIFont" font-style="normal" stroke-width="3.5" stroke-linejoin="bevel" font-size="45.8611" stroke-opacity="1" font-weight="400" fill-opacity="1" stroke="#000000" stroke-linecap="round" fill="#000000" transform="matrix(1,0,0,1,175.58,1298.05)">
    <path fill-rule="evenodd" d="M0,0 L35,5.83333 L35,-5.83333 L0,0" vector-effect="none"/>
   </g>
   <g font-family=".AppleSystemUIFont" font-style="normal" stroke-width="1" stroke-linejoin="bevel" font-size="45.8611" stroke-opacity="1" font-weight="400" stroke="#000000" stroke-linecap="square" fill="none" transform="matrix(0,-1,1,0,733.485,1627.48)">
    <text font-family="osifont" font-style="normal" xml:space="preserve" y="92.2188" font-size="67" x="4" font-weight="400" fill-opacity="1" stroke="none" fill="#000000">105</text>
   </g>
   <g font-family=".AppleSystemUIFont" font-style="normal" stroke-width="3.5" stroke-linejoin="bevel" font-size="45.8611" stroke-opacity="1" font-weight="400" stroke="#000000" stroke-linecap="round" fill="none" transform="matrix(1,0,0,1,785.58,1065.37)">
    <path fill-rule="evenodd" d="M57.1555,466.471 L57.1555,822.25 M610,752.25 L29.1555,752.25 M610,647.25 L29.1555,647.25" vector-effect="none"/>
   </g>
   <g font-family=".AppleSystemUIFont" font-style="normal" stroke-width="3.5" stroke-linejoin="bevel" font-size="45.8611" stroke-opacity="1" font-weight="400" fill-opacity="1" stroke="#000000" stroke-linecap="round" fill="#000000" transform="matrix(1,0,0,1,842.735,1817.62)">
    <path fill-rule="evenodd" d="M0,0 L-5.83333,35 L5.83333,35 L0,0" vector-effect="none"/>
   </g>
   <g font-family=".AppleSystemUIFont" font-style="normal" stroke-width="3.5" stroke-linejoin="bevel" font-size="45.8611" stroke-opacity="1" font-weight="400" fill-opacity="1" stroke="#000000" stroke-linecap="round" fill="#000000" transform="matrix(1,0,0,1,842.735,1712.62)">
    <path fill-rule="evenodd" d="M0,0 L5.83333,-35 L-5.83333,-35 L0,0" vector-effect="none"/>
   </g>
   <g font-family=".AppleSystemUIFont" font-style="normal" stroke-width="1" stroke-linejoin="bevel" font-size="45.8611" stroke-opacity="1" font-weight="400" stroke="#000000" stroke-linecap="square" fill="none" transform="matrix(0,-1,1,0,285.035,459.356)">
    <text font-family="osifont" font-style="normal" xml:space="preserve" y="92.2188" font-size="67" x="4" font-weight="400" fill-opacity="1" stroke="none" fill="#000000">149.5</text>
   </g>
   <g font-family=".AppleSystemUIFont" font-style="normal" stroke-width="3.5" stroke-linejoin="bevel" font-size="45.8611" stroke-opacity="1" font-weight="400" stroke="#000000" stroke-linecap="round" fill="none" transform="matrix(1,0,0,1,785.58,1065.37)">
    <path fill-rule="evenodd" d="M-391.045,-532.75 L-391.045,-822.25 M-1.42109e-13,-752.25 L-419.045,-752.25 M-1.42109e-13,-602.75 L-419.045,-602.75" vector-effect="none"/>
   </g>
   <g font-family=".AppleSystemUIFont" font-style="normal" stroke-width="3.5" stroke-linejoin="bevel" font-size="45.8611" stroke-opacity="1" font-weight="400" fill-opacity="1" stroke="#000000" stroke-linecap="round" fill="#000000" transform="matrix(1,0,0,1,394.535,313.122)">
    <path fill-rule="evenodd" d="M0,0 L5.83333,-35 L-5.83333,-35 L0,0" vector-effect="none"/>
   </g>
   <g font-family=".AppleSystemUIFont" font-style="normal" stroke-width="3.5" stroke-linejoin="bevel" font-size="45.8611" stroke-opacity="1" font-weight="400" fill-opacity="1" stroke="#000000" stroke-linecap="round" fill="#000000" transform="matrix(1,0,0,1,394.535,462.622)">
    <path fill-rule="evenodd" d="M0,0 L-5.83333,35 L5.83333,35 L0,0" vector-effect="none"/>
   </g>
  </g>
 </g>
</svg>
